<svg class="theme-icon" width="20" height="20" viewBox="0 0 20 20" fill="none" xmlns="http://www.w3.org/2000/svg">
<path d="M20 4.19573C19.2563 4.53035 18.4637 4.75214 17.6375 4.85984C18.4875 4.33932 19.1363 3.52137 19.4412 2.53548C18.6488 3.02009 17.7738 3.3624 16.8412 3.55343C16.0887 2.73163 15.0162 2.22266 13.8462 2.22266C11.5763 2.22266 9.74875 4.1124 9.74875 6.42907C9.74875 6.7624 9.77625 7.08291 9.84375 7.38804C6.435 7.21753 3.41875 5.54189 1.3925 2.98932C1.03875 3.61881 0.83125 4.33932 0.83125 5.11496C0.83125 6.57137 1.5625 7.8624 2.6525 8.60984C1.99375 8.59702 1.3475 8.40086 0.8 8.09189C0.8 8.10471 0.8 8.12137 0.8 8.13804C0.8 10.1816 2.22125 11.8791 4.085 12.2701C3.75125 12.3637 3.3875 12.4086 3.01 12.4086C2.7475 12.4086 2.4825 12.3932 2.23375 12.3368C2.765 14.0021 4.2725 15.2265 6.065 15.2662C4.67 16.3855 2.89875 17.0598 0.98125 17.0598C0.645 17.0598 0.3225 17.0445 0 17.0021C1.81625 18.2034 3.96875 18.8893 6.29 18.8893C13.835 18.8893 17.96 12.4791 17.96 6.92266C17.96 6.73676 17.9538 6.55727 17.945 6.37907C18.7588 5.78676 19.4425 5.04702 20 4.19573Z" fill="#acacac"></path>
</svg>