<svg class="theme-icon" width="18" height="18" viewBox="0 0 18 18" fill="none" xmlns="http://www.w3.org/2000/svg">
<path fill-rule="evenodd" clip-rule="evenodd" d="M15.138 3.10873C16.2169 3.17255 16.7467 3.34036 17.235 4.25273C17.7435 5.16391 18 6.73336 18 9.49764V9.50709C18 12.2584 17.7435 13.8396 17.2361 14.7414C16.7479 15.6537 16.218 15.8192 15.1391 15.896C14.0603 15.961 11.3501 16 9.00225 16C6.64987 16 3.93862 15.961 2.86087 15.8948C1.78425 15.818 1.25437 15.6525 0.761625 14.7402C0.25875 13.8385 0 12.2572 0 9.50591V9.49645C0 6.73336 0.25875 5.16391 0.761625 4.25273C1.25437 3.33918 1.78537 3.17255 2.862 3.10755C3.93862 3.03191 6.64987 3 9.00225 3C11.3501 3 14.0603 3.03191 15.138 3.10873ZM12.375 9.5L6.75 5.95455V13.0455L12.375 9.5Z" fill="#acacac"></path>
</svg>