<svg class="theme-icon" width="20" height="20" viewBox="0 0 20 20" fill="none" xmlns="http://www.w3.org/2000/svg">
<path d="M14.0661 9.99984C14.0661 12.2454 12.2458 14.0658 10.0002 14.0658C7.75457 14.0658 5.93423 12.2454 5.93423 9.99984C5.93423 7.75424 7.75457 5.93391 10.0002 5.93391C12.2458 5.93391 14.0661 7.75424 14.0661 9.99984Z" fill="#acacac"></path>
<path d="M19.5089 2.80602C19.3135 2.27639 19.0017 1.797 18.5965 1.4035C18.203 0.998331 17.7239 0.686514 17.194 0.491062C16.7642 0.324133 16.1185 0.12544 14.9293 0.0713093C13.6428 0.0126412 13.2571 0 10.0002 0C6.74295 0 6.35723 0.0123171 5.07107 0.0709852C3.88182 0.12544 3.23582 0.324133 2.80635 0.491062C2.27639 0.686514 1.797 0.998331 1.40382 1.4035C0.998655 1.797 0.686839 2.27606 0.491062 2.80602C0.324133 3.23582 0.12544 3.88182 0.0713093 5.07107C0.0126412 6.35723 0 6.74295 0 10.0002C0 13.2571 0.0126412 13.6428 0.0713093 14.9293C0.12544 16.1185 0.324133 16.7642 0.491062 17.194C0.686839 17.7239 0.998331 18.203 1.4035 18.5965C1.797 19.0017 2.27606 19.3135 2.80602 19.5089C3.23582 19.6762 3.88182 19.8749 5.07107 19.929C6.35723 19.9877 6.74262 20 9.99984 20C13.2574 20 13.6431 19.9877 14.9289 19.929C16.1182 19.8749 16.7642 19.6762 17.194 19.5089C18.2578 19.0986 19.0986 18.2578 19.5089 17.194C19.6759 16.7642 19.8746 16.1185 19.929 14.9293C19.9877 13.6428 20 13.2571 20 10.0002C20 6.74295 19.9877 6.35723 19.929 5.07107C19.8749 3.88182 19.6762 3.23582 19.5089 2.80602ZM10.0002 16.2634C6.54069 16.2634 3.73629 13.4593 3.73629 9.99984C3.73629 6.54036 6.54069 3.73629 10.0002 3.73629C13.4593 3.73629 16.2637 6.54036 16.2637 9.99984C16.2637 13.4593 13.4593 16.2634 10.0002 16.2634ZM16.5114 4.95243C15.703 4.95243 15.0476 4.29704 15.0476 3.48865C15.0476 2.68026 15.703 2.02486 16.5114 2.02486C17.3197 2.02486 17.9751 2.68026 17.9751 3.48865C17.9748 4.29704 17.3197 4.95243 16.5114 4.95243Z" fill="#acacac"></path>
</svg>